<?xml version="1.0" encoding="UTF-8" standalone="no"?>
<svg xmlns="http://www.w3.org/2000/svg" xmlns:xlink="http://www.w3.org/1999/xlink" viewBox="0 0 48 48">
 <defs id="0">
  <linearGradient id="2">
   <stop id="E" stop-color="#eeeeec"/>
   <stop id="F" offset="1" stop-color="#eeeeec" stop-opacity="0"/>
  </linearGradient>
  <linearGradient id="3">
   <stop id="G" stop-color="#2e3436"/>
   <stop id="H" offset="1" stop-color="#2e3436" stop-opacity="0"/>
  </linearGradient>
  <linearGradient id="4">
   <stop id="I" stop-color="#fff" stop-opacity="0.8"/>
   <stop id="J" offset="1" stop-color="#fff" stop-opacity="0"/>
  </linearGradient>
  <linearGradient id="5">
   <stop id="K" stop-color="#eee"/>
   <stop id="L" offset="1" stop-color="#dcdcdc"/>
  </linearGradient>
  <radialGradient cx="24.377" cy="45.941" r="23.08" id="6" xlink:href="#3" gradientUnits="userSpaceOnUse" gradientTransform="matrix(1,0,0,0.1455399,0,39.255173)"/>
  <radialGradient cx="60.05" cy="51.39" r="15.03" id="7" xlink:href="#5" gradientUnits="userSpaceOnUse" gradientTransform="matrix(-1.404511,1.1888571,-1,-1.1813958,199.73811,11.750541)"/>
  <linearGradient id="8">
   <stop id="M" stop-color="#eeeeec" stop-opacity="0.8"/>
   <stop id="N" offset="1" stop-color="#eeeeec" stop-opacity="0"/>
  </linearGradient>
  <linearGradient y1="5.781" x2="0" y2="42.44" id="9" xlink:href="#8" gradientUnits="userSpaceOnUse"/>
  <linearGradient y1="4.219" x2="0" y2="43.781" id="A" xlink:href="#4" gradientUnits="userSpaceOnUse"/>
  <linearGradient x1="4.094" y1="-58.01" x2="15.298" y2="33.906" id="B" xlink:href="#2" gradientUnits="userSpaceOnUse" gradientTransform="translate(0.7063923,-1.4999995)"/>
 </defs>
 <g id="1">
  <path d="m 47.453955,45.941494 a 23.076923,3.3586134 0 1 1 -46.153847,0 23.076923,3.3586134 0 1 1 46.153847,0 z" transform="translate(-0.37703133,-2.8001078)" id="C" opacity="0.8" fill="url(#6)"/>
  <g transform="translate(-0.70639229,0)" id="D">
   <rect width="42" height="42" x="3.706" y="1.5" id="O" fill="#2e3436" rx="6"/>
   <path d="M 9,4.09375 C 6.2608771,4.09375 4.09375,6.2608771 4.09375,9 l 0,30 c 0,2.739123 2.1671271,4.90625 4.90625,4.90625 l 30,0 c 2.739123,0 4.90625,-2.167127 4.90625,-4.90625 l 0,-30 C 43.90625,6.2608771 41.739123,4.09375 39,4.09375 l -30,0 z" transform="translate(0.7063923,-1.4999995)" id="P" fill="#555753"/>
   <g transform="matrix(1.0455796,0,0,1.0455796,1.5108071,1.7679727)" id="Q">
    <path d="M 23.6875,2.9375 C 22.928488,3.0540609 22.301298,3.5770409 22,4.28125 21.9941,4.295069 21.97439,4.298528 21.96875,4.3125 l -5.125,11.84375 -12.875,1.1875 c -0.8412987,0.0941 -1.6102221,0.690191 -1.875,1.53125 -0.2647793,0.841061 -0.054673,1.745974 0.625,2.34375 l 9.71875,8.5625 -2.84375,12.5625 c -0.00262,0.01051 0.00245,0.02073 0,0.03125 -0.2046091,0.877327 0.1588029,1.774984 0.84375,2.28125 0.685179,0.506433 1.665752,0.574383 2.4375,0.125 l 0.03125,0 0,0.03125 L 24,38.1875 l 11.09375,6.59375 0,-0.03125 0.03125,0 c 0.771745,0.449381 1.752318,0.38144 2.4375,-0.125 0.684943,-0.506266 1.048359,-1.403923 0.84375,-2.28125 l 0,-0.03125 -2.84375,-12.53125 9.71875,-8.5625 c 0.679673,-0.597775 0.889778,-1.502692 0.625,-2.34375 -0.264777,-0.841065 -1.033704,-1.437148 -1.875,-1.53125 l -12.875,-1.1875 -5.125,-11.84375 c -0.0032,-0.00776 0.0033,-0.02354 0,-0.03125 L 26,4.28125 C 25.613558,3.3948385 24.714427,2.831768 23.75,2.9375 a 1.2579961,1.2579961 0 0 0 -0.0625,0 z" transform="matrix(0.791778,0,0,0.791778,3.1817558,0.8101045)" id="T" fill="#2e3436"/>
    <path d="m 23.875,4.1875 a 0.96721468,0.96721468 0 0 0 -0.75,0.59375 l -5.40625,12.5625 -13.625,1.25 a 0.96721468,0.96721468 0 0 0 -0.53125,1.6875 l 10.25,9.03125 -3,13.34375 a 0.96721468,0.96721468 0 0 0 1.4375,1.0625 l 11.75,-7 11.75,6.96875 a 0.96721468,0.96721468 0 0 0 1.4375,-1.0625 l -3,-13.3125 10.25,-9.03125 a 0.96721468,0.96721468 0 0 0 -0.53125,-1.6875 l -13.625,-1.25 L 24.875,4.78125 a 0.96721468,0.96721468 0 0 0 -1,-0.59375 z" transform="matrix(0.791778,0,0,0.791778,3.1817558,0.8101045)" id="U" fill="#9c7f00"/>
    <path d="M 12.493449,34.75168 14.968761,23.74672 6.4912097,16.305787 17.722464,15.259228 22.179501,4.897224 l 4.465985,10.358151 11.232158,1.036861 -8.471126,7.44825 2.484814,11.00282 -9.701427,-5.754881 -9.696456,5.763255 0,0 z" id="V" fill="#edd400"/>
    <path d="M 24,6.28125 18.78125,18.4375 a 0.45469846,0.45469846 0 0 1 -0.375,0.25 l -13.125,1.21875 9.90625,8.71875 a 0.45469846,0.45469846 0 0 1 0.125,0.4375 l -2.90625,12.875 11.375,-6.75 a 0.45469846,0.45469846 0 0 1 0.4375,0 l 11.375,6.71875 L 32.6875,29.0625 a 0.45469846,0.45469846 0 0 1 0.125,-0.4375 l 9.90625,-8.71875 -13.125,-1.21875 a 0.45469846,0.45469846 0 0 1 -0.375,-0.25 L 24,6.28125 z" transform="matrix(0.791778,0,0,0.791778,3.1817558,0.8101045)" id="W" fill="none" stroke="url(#9)"/>
   </g>
   <path d="M 9,4.71875 C 6.5943852,4.71875 4.71875,6.5943852 4.71875,9 l 0,30 c 0,2.405615 1.8756352,4.28125 4.28125,4.28125 l 30,0 c 2.405615,0 4.28125,-1.875635 4.28125,-4.28125 l 0,-30 C 43.28125,6.5943852 41.405615,4.71875 39,4.71875 l -30,0 z" transform="translate(0.7063923,-1.4999995)" id="R" opacity="0.8" fill="none" stroke="url(#A)" stroke-linecap="round" stroke-dashoffset="30"/>
   <path d="m 9.7063923,2.5937505 c -2.7391229,0 -4.90625,2.1671271 -4.90625,4.90625 l 0,17.1562505 C 16.88535,19.523108 30.480987,15.086728 44.612642,12.125001 l 0,-4.6250005 c 0,-2.7391229 -2.167127,-4.90625 -4.90625,-4.90625 l -29.9999997,0 z" id="S" opacity="0.6" fill="url(#B)"/>
  </g>
 </g>
</svg>
